<svg id='empushyIcon' xmlns="http://www.w3.org/2000/svg" stroke="#242424" stroke-width="6" fill="black" viewBox="-10 -5 590 560"><defs><style>.cls-1{fill:#fff;}</style></defs><g id="Layer_2" data-name="Layer 2"><g id="Layer_1-2" data-name="Layer 1"><path style="fill: #242424;" d="M0,300c0-54.66-.09-109.33,0-164C.14,97.83,22.56,66.5,58.35,55.37a90.57,90.57,0,0,1,26-3.81c62.5-.31,125-.17,187.49-.13a17.53,17.53,0,0,1,5.87.83c4.1,1.49,5.91,4.81,5.63,9s-2.57,7.25-6.85,8.12a37.84,37.84,0,0,1-7.46.48q-91.74,0-183.49,0c-28.66,0-49.6,12.89-61.46,38.93a62.64,62.64,0,0,0-5.42,25.1q-.54,166-.17,332c.06,36.39,28,64.47,64.29,64.55q165.74.33,331.48,0c37.4-.08,64.93-28.3,65-66,.12-61.83,0-123.66,0-185.49a37.19,37.19,0,0,1,.15-5.49,8.76,8.76,0,0,1,8.7-7.46c4.54-.14,8.23,2.52,9.13,6.89a29.63,29.63,0,0,1,.37,6c0,61.49-.33,123,.14,184.49.28,36.67-21.64,67.46-51.73,79.56a88.51,88.51,0,0,1-33.19,6.23q-164,.07-328,0c-40.94,0-73.52-25.61-82.72-64.85C.52,477.12.14,469.48.12,462,0,408,0,354,0,300Z"/><path style="fill: #242424;" d="M466.13,15.07C474.89,8.24,484.29,3.47,495,1.33A65.47,65.47,0,0,1,564,31.7c14.33,23.74,12.8,54.27-5.63,75-21.44,24.14-43.79,47.51-66.45,70.53-15.2,15.43-39.73,13.5-55.29-3.09-19.93-21.26-40-42.42-59.77-63.8C361.69,94,356,74.61,360.21,52.7,369.36,5.64,424.93-15.69,463.35,13Zm-88.74,50.5c.05,11.64,3.74,22.08,11.58,30.58q30.5,33,61.5,65.62c9.67,10.2,21.8,9.88,31.42-.34,19.63-20.86,39.11-41.86,59-62.52,18.53-19.31,18.75-48.39.09-66.84s-47.28-18.12-66.37.58c-6.17,6.05-10.66,6-16.63,0a47,47,0,0,0-80.54,32.93Z"/><path id="heart" style="fill: gold" class="cls-1" d="M377.39,65.57a47,47,0,0,1,80.54-32.93c6,6,10.46,6.06,16.63,0,19.09-18.7,47.79-18.95,66.37-.58s18.44,47.53-.09,66.84c-19.84,20.66-39.32,41.66-59,62.52-9.62,10.22-21.75,10.54-31.42.34Q419.53,129.13,389,96.15C381.13,87.65,377.44,77.21,377.39,65.57Z"/></g></g></svg>